{
    "asset" : {
        "generator" : "Khronos glTF Blender I/O v1.6.16",
        "version" : "2.0"
    },
    "extensionsUsed" : [
        "KHR_lights_punctual"
    ],
    "extensionsRequired" : [
        "KHR_lights_punctual"
    ],
    "extensions" : {
        "KHR_lights_punctual" : {
            "lights" : [
                {
                    "color" : [
                        0.3427698016166687,
                        0.6192930340766907,
                        1
                    ],
                    "intensity" : 300,
                    "type" : "point",
                    "name" : "Point"
                }
            ]
        }
    },
    "scene" : 0,
    "scenes" : [
        {
            "name" : "Scene",
            "nodes" : [
                1,
                3,
                4,
                6,
                7
            ]
        }
    ],
    "nodes" : [
        {
            "mesh" : 0,
            "name" : "Book",
            "rotation" : [
                0,
                0.1027863398194313,
                0,
                0.994703471660614
            ],
            "scale" : [
                0.7785141468048096,
                1,
                0.7722125053405762
            ],
            "translation" : [
                0.6371146440505981,
                2.0001120567321777,
                0.47201648354530334
            ]
        },
        {
            "children" : [
                0
            ],
            "mesh" : 1,
            "name" : "Box",
            "translation" : [
                0,
                1,
                0
            ]
        },
        {
            "camera" : 0,
            "name" : "Camera_Orientation",
            "rotation" : [
                -0.7071067690849304,
                0,
                0,
                0.7071067690849304
            ]
        },
        {
            "children" : [
                2
            ],
            "name" : "Camera",
            "rotation" : [
                0.49795594811439514,
                -0.5020357370376587,
                0.5020357370376587,
                0.49795591831207275
            ],
            "translation" : [
                0.7186713218688965,
                3.178896427154541,
                14.383501052856445
            ]
        },
        {
            "mesh" : 2,
            "name" : "Floor",
            "scale" : [
                1.1290775537490845,
                1.1290775537490845,
                1.1290775537490845
            ]
        },
        {
            "extensions" : {
                "KHR_lights_punctual" : {
                    "light" : 0
                }
            },
            "name" : "Light_Orientation",
            "rotation" : [
                -0.7071067690849304,
                0,
                0,
                0.7071067690849304
            ]
        },
        {
            "children" : [
                5
            ],
            "name" : "Light",
            "scale" : [
                1.2804750204086304,
                1.2804750204086304,
                1.2804750204086304
            ],
            "translation" : [
                1.4878716468811035,
                5.571566104888916,
                3.404268741607666
            ]
        },
        {
            "mesh" : 3,
            "name" : "Box_collider",
            "translation" : [
                0,
                1,
                0
            ]
        }
    ],
    "cameras" : [
        {
            "name" : "Camera",
            "perspective" : {
                "aspectRatio" : 1.7777777777777777,
                "yfov" : 0.6128792659619432,
                "zfar" : 100,
                "znear" : 0.10000000149011612
            },
            "type" : "perspective"
        }
    ],
    "materials" : [
        {
            "doubleSided" : true,
            "name" : "Material.002",
            "normalTexture" : {
                "index" : 0
            },
            "pbrMetallicRoughness" : {
                "baseColorTexture" : {
                    "index" : 1
                },
                "metallicFactor" : 0,
                "roughnessFactor" : 0.866233766078949
            }
        },
        {
            "doubleSided" : true,
            "name" : "Material.003",
            "pbrMetallicRoughness" : {
                "baseColorTexture" : {
                    "index" : 2
                },
                "metallicFactor" : 0,
                "roughnessFactor" : 0.5
            }
        },
        {
            "doubleSided" : true,
            "name" : "Material",
            "normalTexture" : {
                "index" : 3
            },
            "pbrMetallicRoughness" : {
                "baseColorTexture" : {
                    "index" : 4
                },
                "metallicFactor" : 0,
                "metallicRoughnessTexture" : {
                    "index" : 5
                }
            }
        },
        {
            "doubleSided" : true,
            "name" : "Material.001",
            "normalTexture" : {
                "index" : 6
            },
            "pbrMetallicRoughness" : {
                "baseColorTexture" : {
                    "index" : 7
                },
                "metallicFactor" : 0,
                "metallicRoughnessTexture" : {
                    "index" : 8
                }
            }
        }
    ],
    "meshes" : [
        {
            "name" : "Cube.001",
            "primitives" : [
                {
                    "attributes" : {
                        "POSITION" : 0,
                        "NORMAL" : 1,
                        "TEXCOORD_0" : 2
                    },
                    "indices" : 3,
                    "material" : 0
                },
                {
                    "attributes" : {
                        "POSITION" : 4,
                        "NORMAL" : 5,
                        "TEXCOORD_0" : 6
                    },
                    "indices" : 7,
                    "material" : 1
                }
            ]
        },
        {
            "name" : "Box",
            "primitives" : [
                {
                    "attributes" : {
                        "POSITION" : 8,
                        "NORMAL" : 9,
                        "TEXCOORD_0" : 10
                    },
                    "indices" : 11,
                    "material" : 2
                }
            ]
        },
        {
            "name" : "Plane",
            "primitives" : [
                {
                    "attributes" : {
                        "POSITION" : 12,
                        "NORMAL" : 13,
                        "TEXCOORD_0" : 14
                    },
                    "indices" : 15,
                    "material" : 3
                }
            ]
        },
        {
            "name" : "Box_collider",
            "primitives" : [
                {
                    "attributes" : {
                        "POSITION" : 16,
                        "NORMAL" : 17,
                        "TEXCOORD_0" : 18
                    },
                    "indices" : 11,
                    "material" : 2
                }
            ]
        }
    ],
    "textures" : [
        {
            "sampler" : 0,
            "source" : 0
        },
        {
            "sampler" : 0,
            "source" : 1
        },
        {
            "sampler" : 0,
            "source" : 2
        },
        {
            "sampler" : 0,
            "source" : 3
        },
        {
            "sampler" : 0,
            "source" : 4
        },
        {
            "sampler" : 0,
            "source" : 5
        },
        {
            "sampler" : 0,
            "source" : 6
        },
        {
            "sampler" : 0,
            "source" : 7
        },
        {
            "sampler" : 0,
            "source" : 8
        }
    ],
    "images" : [
        {
            "mimeType" : "image/jpeg",
            "name" : "book_cover_normal",
            "uri" : "textures/book_cover_normal.jpg"
        },
        {
            "mimeType" : "image/jpeg",
            "name" : "book_cover",
            "uri" : "textures/book_cover.jpg"
        },
        {
            "mimeType" : "image/jpeg",
            "name" : "paper.jpg",
            "uri" : "textures/paper_jpg.jpg"
        },
        {
            "mimeType" : "image/jpeg",
            "name" : "TexturesCom_WoodPanelsRectangular_Old_1K_normal",
            "uri" : "textures/TexturesCom_WoodPanelsRectangular_Old_1K_normal.jpg"
        },
        {
            "mimeType" : "image/jpeg",
            "name" : "TexturesCom_WoodPanelsRectangular_Old_1K_albedo",
            "uri" : "textures/TexturesCom_WoodPanelsRectangular_Old_1K_albedo.jpg"
        },
        {
            "mimeType" : "image/jpeg",
            "name" : "TexturesCom_WoodPanelsRectangular_Old_1K_roughness",
            "uri" : "textures/TexturesCom_WoodPanelsRectangular_Old_1K_roughness.jpg"
        },
        {
            "mimeType" : "image/jpeg",
            "name" : "floor_normal",
            "uri" : "textures/floor_normal.jpg"
        },
        {
            "mimeType" : "image/jpeg",
            "name" : "floor_diffuse",
            "uri" : "textures/floor_diffuse.jpg"
        },
        {
            "mimeType" : "image/jpeg",
            "name" : "floor_roughness",
            "uri" : "textures/floor_roughness.jpg"
        }
    ],
    "accessors" : [
        {
            "bufferView" : 0,
            "componentType" : 5126,
            "count" : 182,
            "max" : [
                0.25247564911842346,
                -0.9203755259513855,
                0.4105847179889679
            ],
            "min" : [
                -0.25575172901153564,
                -1,
                -0.4105847179889679
            ],
            "type" : "VEC3"
        },
        {
            "bufferView" : 1,
            "componentType" : 5126,
            "count" : 182,
            "type" : "VEC3"
        },
        {
            "bufferView" : 2,
            "componentType" : 5126,
            "count" : 182,
            "type" : "VEC2"
        },
        {
            "bufferView" : 3,
            "componentType" : 5123,
            "count" : 288,
            "type" : "SCALAR"
        },
        {
            "bufferView" : 4,
            "componentType" : 5126,
            "count" : 36,
            "max" : [
                0.23915761709213257,
                -0.9329807758331299,
                0.403646856546402
            ],
            "min" : [
                -0.2384781390428543,
                -0.9873946905136108,
                -0.4036371409893036
            ],
            "type" : "VEC3"
        },
        {
            "bufferView" : 5,
            "componentType" : 5126,
            "count" : 36,
            "type" : "VEC3"
        },
        {
            "bufferView" : 6,
            "componentType" : 5126,
            "count" : 36,
            "type" : "VEC2"
        },
        {
            "bufferView" : 7,
            "componentType" : 5123,
            "count" : 72,
            "type" : "SCALAR"
        },
        {
            "bufferView" : 8,
            "componentType" : 5126,
            "count" : 24,
            "max" : [
                1,
                1,
                1
            ],
            "min" : [
                -1,
                -1,
                -1
            ],
            "type" : "VEC3"
        },
        {
            "bufferView" : 9,
            "componentType" : 5126,
            "count" : 24,
            "type" : "VEC3"
        },
        {
            "bufferView" : 10,
            "componentType" : 5126,
            "count" : 24,
            "type" : "VEC2"
        },
        {
            "bufferView" : 11,
            "componentType" : 5123,
            "count" : 36,
            "type" : "SCALAR"
        },
        {
            "bufferView" : 12,
            "componentType" : 5126,
            "count" : 4,
            "max" : [
                16.3693790435791,
                0,
                16.3693790435791
            ],
            "min" : [
                -16.3693790435791,
                0,
                -16.3693790435791
            ],
            "type" : "VEC3"
        },
        {
            "bufferView" : 13,
            "componentType" : 5126,
            "count" : 4,
            "type" : "VEC3"
        },
        {
            "bufferView" : 14,
            "componentType" : 5126,
            "count" : 4,
            "type" : "VEC2"
        },
        {
            "bufferView" : 15,
            "componentType" : 5123,
            "count" : 6,
            "type" : "SCALAR"
        },
        {
            "bufferView" : 16,
            "componentType" : 5126,
            "count" : 24,
            "max" : [
                1,
                1,
                1
            ],
            "min" : [
                -1,
                -1,
                -1
            ],
            "type" : "VEC3"
        },
        {
            "bufferView" : 17,
            "componentType" : 5126,
            "count" : 24,
            "type" : "VEC3"
        },
        {
            "bufferView" : 18,
            "componentType" : 5126,
            "count" : 24,
            "type" : "VEC2"
        }
    ],
    "bufferViews" : [
        {
            "buffer" : 0,
            "byteLength" : 2184,
            "byteOffset" : 0
        },
        {
            "buffer" : 0,
            "byteLength" : 2184,
            "byteOffset" : 2184
        },
        {
            "buffer" : 0,
            "byteLength" : 1456,
            "byteOffset" : 4368
        },
        {
            "buffer" : 0,
            "byteLength" : 576,
            "byteOffset" : 5824
        },
        {
            "buffer" : 0,
            "byteLength" : 432,
            "byteOffset" : 6400
        },
        {
            "buffer" : 0,
            "byteLength" : 432,
            "byteOffset" : 6832
        },
        {
            "buffer" : 0,
            "byteLength" : 288,
            "byteOffset" : 7264
        },
        {
            "buffer" : 0,
            "byteLength" : 144,
            "byteOffset" : 7552
        },
        {
            "buffer" : 0,
            "byteLength" : 288,
            "byteOffset" : 7696
        },
        {
            "buffer" : 0,
            "byteLength" : 288,
            "byteOffset" : 7984
        },
        {
            "buffer" : 0,
            "byteLength" : 192,
            "byteOffset" : 8272
        },
        {
            "buffer" : 0,
            "byteLength" : 72,
            "byteOffset" : 8464
        },
        {
            "buffer" : 0,
            "byteLength" : 48,
            "byteOffset" : 8536
        },
        {
            "buffer" : 0,
            "byteLength" : 48,
            "byteOffset" : 8584
        },
        {
            "buffer" : 0,
            "byteLength" : 32,
            "byteOffset" : 8632
        },
        {
            "buffer" : 0,
            "byteLength" : 12,
            "byteOffset" : 8664
        },
        {
            "buffer" : 0,
            "byteLength" : 288,
            "byteOffset" : 8676
        },
        {
            "buffer" : 0,
            "byteLength" : 288,
            "byteOffset" : 8964
        },
        {
            "buffer" : 0,
            "byteLength" : 192,
            "byteOffset" : 9252
        }
    ],
    "samplers" : [
        {
            "magFilter" : 9729,
            "minFilter" : 9987
        }
    ],
    "buffers" : [
        {
            "byteLength" : 9444,
            "uri" : "test_scene.bin"
        }
    ]
}
